<?xml version="1.0" standalone="no"?>
<!DOCTYPE svg PUBLIC "-//W3C//DTD SVG 20010904//EN"
 "http://www.w3.org/TR/2001/REC-SVG-20010904/DTD/svg10.dtd">
<svg version="1.0" xmlns="http://www.w3.org/2000/svg"
 viewBox="0 0 200.000000 199.000000"
 preserveAspectRatio="xMidYMid meet">

<g transform="translate(0.000000,199.000000) scale(0.100000,-0.100000)"
fill="black" stroke="none">
<path d="M1175 1844 c-290 -62 -638 -343 -774 -627 -54 -111 -74 -194 -74
-302 0 -148 48 -248 151 -314 114 -73 315 -82 492 -22 75 25 161 65 188 86 3
3 -69 149 -86 173 -7 11 -18 7 -53 -16 -94 -64 -251 -95 -360 -73 -161 34
-234 160 -200 346 36 199 251 440 485 545 84 38 147 51 235 51 66 0 84 -4 144
-34 l70 -35 81 58 c45 32 89 67 99 78 19 20 18 21 -32 46 -109 56 -229 69
-366 40z"/>
<path d="M1585 1530 c-31 -12 -43 -31 -47 -75 l-3 -40 73 -3 72 -3 0 39 c0 62
-47 102 -95 82z m55 -60 c10 -18 8 -20 -30 -20 -43 0 -43 0 -34 24 9 23 51 20
64 -4z"/>
<path d="M754 1424 c-125 -46 -238 -267 -176 -344 18 -22 28 -25 81 -25 66 1
75 6 85 48 6 27 6 27 -43 27 -52 0 -61 8 -61 56 0 38 39 111 77 145 31 27 42
30 84 27 46 -3 50 -1 66 29 9 18 14 35 11 38 -14 14 -85 14 -124 -1z"/>
<path d="M920 1414 c-6 -14 -42 -99 -80 -189 -39 -90 -70 -167 -70 -171 0 -3
36 -4 79 -2 99 6 147 33 181 104 20 40 22 51 12 78 -11 28 -10 33 13 50 50 36
70 109 39 140 -11 12 -36 16 -90 16 -71 0 -75 -1 -84 -26z m108 -61 c4 -26
-34 -63 -65 -63 -28 0 -28 1 -2 51 15 31 25 40 42 37 14 -2 23 -11 25 -25z
m-60 -160 c4 -30 -39 -73 -73 -73 -23 0 -25 3 -19 23 18 58 35 78 62 75 19 -2
28 -10 30 -25z"/>
<path d="M1156 1347 c-21 -50 -58 -138 -82 -195 l-43 -103 37 3 c36 3 38 5 66
76 l30 72 53 0 c48 0 54 2 68 30 23 44 19 49 -35 52 l-49 3 19 43 19 42 55 0
c51 0 57 2 71 30 8 16 15 31 15 35 0 3 -42 5 -92 5 l-93 0 -39 -93z"/>
<path d="M1530 1380 c0 -5 0 -13 0 -17 0 -5 15 -13 33 -19 l32 -12 -46 -20
c-46 -20 -70 -49 -46 -57 6 -2 36 -11 64 -20 54 -17 73 -14 73 10 0 8 -15 17
-35 21 -42 8 -39 16 14 34 39 13 59 36 44 51 -8 7 -109 39 -125 39 -4 0 -8 -4
-8 -10z"/>
<path d="M1464 1205 c-7 -19 -14 -37 -14 -40 0 -6 121 -68 125 -63 1 2 10 18
20 37 14 28 14 35 3 42 -8 6 -19 1 -31 -14 l-19 -22 6 26 c7 30 -20 50 -30 24
-10 -25 -27 -17 -20 9 4 16 1 26 -10 30 -11 4 -19 -4 -30 -29z"/>
<path d="M1422 1123 c-5 -10 -6 -27 -1 -38 12 -32 10 -36 -11 -25 -21 11 -40
6 -40 -10 0 -5 27 -27 59 -50 53 -35 61 -38 69 -23 7 12 4 21 -12 34 -21 18
-21 18 14 19 24 0 39 6 48 20 12 19 10 20 -37 20 -47 0 -50 2 -56 30 -8 37
-21 46 -33 23z"/>
<path d="M1312 977 l-33 -34 54 -46 c48 -41 56 -45 67 -32 11 13 10 18 -6 31
-18 15 -17 15 9 9 28 -6 57 8 57 26 0 5 -13 9 -30 9 -23 0 -30 5 -30 19 0 17
-33 51 -50 51 -3 0 -21 -15 -38 -33z m48 -27 c0 -5 -4 -10 -9 -10 -6 0 -13 5
-16 10 -3 6 1 10 9 10 9 0 16 -4 16 -10z"/>
<path d="M1225 898 l-26 -23 43 -52 c24 -28 46 -52 50 -52 4 -1 20 10 35 23
22 19 25 27 16 37 -10 10 -15 9 -28 -1 -20 -17 -32 -5 -15 15 18 22 -2 44 -24
26 -9 -8 -16 -8 -20 -2 -4 5 1 14 10 19 9 5 14 14 10 21 -10 16 -22 14 -51
-11z"/>
<path d="M363 300 c-47 -19 -59 -101 -20 -138 30 -29 89 -30 117 -2 11 11 20
24 20 29 0 5 3 16 6 25 5 13 -2 16 -40 16 -34 0 -46 -4 -46 -15 0 -8 7 -15 15
-15 21 0 19 -16 -2 -25 -12 -4 -24 1 -35 15 -22 27 -23 44 -2 64 18 19 36 20
51 5 6 -6 21 -8 34 -4 l23 8 -28 23 c-28 25 -56 29 -93 14z"/>
<path d="M545 299 c-32 -18 -45 -40 -45 -76 0 -75 98 -113 150 -58 30 32 32
87 4 116 -24 24 -82 34 -109 18z m75 -54 c10 -12 10 -21 2 -40 -13 -29 -43
-33 -66 -9 -19 18 -19 20 -6 45 13 23 52 25 70 4z"/>
<path d="M1240 297 c-81 -41 -53 -157 39 -157 50 0 80 25 88 72 5 32 1 41 -25
68 -33 32 -62 37 -102 17z m75 -71 c0 -52 -63 -62 -73 -12 -7 33 6 47 40 44
29 -3 33 -7 33 -32z"/>
<path d="M692 223 l3 -78 48 -3 c42 -3 47 -1 47 17 0 16 -6 21 -25 21 -31 0
-33 17 -3 22 34 5 37 38 4 38 -32 0 -35 17 -4 22 13 2 24 11 26 21 3 14 -4 17
-48 17 l-51 0 3 -77z"/>
<path d="M810 220 l0 -80 44 0 c67 0 102 36 97 102 -2 33 -42 58 -93 58 l-48
0 0 -80z m94 18 c13 -21 -2 -51 -28 -56 -13 -3 -16 5 -16 38 0 33 3 41 16 38
9 -2 22 -11 28 -20z"/>
<path d="M1040 220 l0 -80 35 0 c90 0 137 79 80 135 -18 19 -35 25 -70 25
l-45 0 0 -80z m88 12 c4 -26 -13 -52 -34 -52 -10 0 -14 13 -14 41 0 36 2 40
23 37 14 -2 23 -11 25 -26z"/>
<path d="M1390 220 l0 -80 45 0 c38 0 45 3 45 20 0 15 -7 20 -25 20 -31 0 -33
17 -3 22 34 5 37 38 4 38 -14 0 -26 5 -26 10 0 6 11 10 25 10 18 0 25 5 25 20
0 17 -7 20 -45 20 l-45 0 0 -80z"/>
<path d="M1502 223 l3 -78 48 -3 c42 -3 47 -1 47 17 0 16 -6 21 -25 21 -24 0
-25 3 -25 60 0 58 -1 60 -25 60 -26 0 -26 0 -23 -77z"/>
</g>
</svg>
