<?xml version="1.0" standalone="no"?>
<!DOCTYPE svg PUBLIC "-//W3C//DTD SVG 20010904//EN"
 "http://www.w3.org/TR/2001/REC-SVG-20010904/DTD/svg10.dtd">
<svg version="1.0" xmlns="http://www.w3.org/2000/svg"
 width="50.000000pt" height="50.000000pt" viewBox="0 0 50.000000 50.000000"
 preserveAspectRatio="xMidYMid meet">

<g transform="translate(0.000000,50.000000) scale(0.100000,-0.100000)"
fill="#023765" stroke="none">
<path d="M298 473 c7 -3 16 -2 19 1 4 3 -2 6 -13 5 -11 0 -14 -3 -6 -6z"/>
<path d="M341 459 c-57 -11 -81 -33 -81 -76 0 -18 5 -33 10 -33 16 0 11 -26
-7 -41 -16 -13 -17 -12 -5 3 20 25 -12 70 -47 66 -21 -2 -27 -9 -29 -33 -5
-54 -12 -73 -39 -106 l-27 -32 22 -17 c18 -15 19 -19 6 -24 -23 -9 -36 -7 -29
4 10 16 -26 -1 -47 -22 -10 -10 -16 -23 -13 -28 4 -6 1 -10 -4 -10 -6 0 -11
-7 -11 -16 0 -9 6 -14 13 -11 6 2 20 0 29 -4 22 -12 51 0 44 18 -5 11 1 14 22
12 15 -2 32 0 38 3 13 8 30 5 74 -15 30 -13 35 -20 35 -49 0 -29 3 -33 25 -33
20 0 25 5 26 25 0 14 3 30 7 36 12 20 11 68 -2 92 -11 21 -8 27 13 23 25 -5
56 11 56 28 0 10 7 24 15 31 21 17 19 36 -5 53 -20 14 -20 15 -1 20 14 3 21
17 27 52 6 44 5 49 -22 71 -32 26 -30 25 -93 13z m-206 -318 c10 -17 -11 -21
-31 -6 -18 14 -18 14 3 15 12 0 24 -4 28 -9z"/>
<path d="M196 415 c-3 -8 -1 -15 4 -15 6 0 10 7 10 15 0 8 -2 15 -4 15 -2 0
-6 -7 -10 -15z"/>
</g>
</svg>
